<svg width="198" height="60" viewBox="0 0 198 60" fill="none" xmlns="http://www.w3.org/2000/svg">
<mask id="path-1-inside-1" fill="white">
<path fill-rule="evenodd" clip-rule="evenodd" d="M39.9401 46.2327C40.8756 44.3112 41.6324 42.3037 42.2046 40.2306C44.1376 39.6538 46.0173 38.8902 47.8121 37.9487C46.1893 41.6012 43.3909 44.5487 39.9401 46.2327ZM30.1305 47.4513C30.1111 47.3966 30.0893 47.342 30.0624 47.2889L29.0462 45.2559C28.3558 43.8745 27.767 42.4362 27.2817 40.9584C29.2502 41.3437 31.2553 41.5412 33.2669 41.5412C35.2792 41.5412 37.2857 41.3437 39.2549 40.9584C38.769 42.4346 38.1797 43.8707 37.4878 45.2559L36.4716 47.2889C36.4447 47.342 36.4229 47.3966 36.4035 47.4513C35.3889 47.6662 34.34 47.7797 33.2669 47.7797C32.1939 47.7797 31.1451 47.6662 30.1305 47.4513ZM18.7219 37.9487C20.5177 38.8908 22.3985 39.6549 24.3329 40.2317C24.9046 42.3042 25.6604 44.316 26.5929 46.2321C23.1426 44.5482 20.3447 41.6006 18.7219 37.9487ZM26.5929 15.0339C25.6604 16.95 24.9046 18.9619 24.3329 21.0344C22.3985 21.6118 20.5177 22.3752 18.7213 23.3179C20.3447 19.6654 23.1426 16.7179 26.5929 15.0339ZM36.4035 13.8147C36.4229 13.8694 36.4447 13.9241 36.4716 13.977L37.4878 16.0106C38.1802 17.3959 38.769 18.8314 39.2549 20.3081C37.2857 19.9223 35.2792 19.7249 33.2669 19.7249C31.2553 19.7249 29.2502 19.9223 27.2817 20.3077C27.767 18.8299 28.3558 17.3921 29.0462 16.0106L30.0624 13.9776C30.0893 13.9241 30.1111 13.87 30.1305 13.8147C31.1451 13.6 32.1939 13.4862 33.2669 13.4862C34.34 13.4862 35.3889 13.6 36.4035 13.8147ZM47.8121 23.3179C46.0173 22.3763 44.1376 21.6123 42.2046 21.0354C41.6324 18.9625 40.8756 16.9548 39.9401 15.0333C43.3909 16.7174 46.1893 19.6654 47.8121 23.3179ZM17.1822 30.6333C17.1822 29.4207 17.3015 28.2378 17.5274 27.0959L19.2462 26.1393C20.6487 25.3585 22.1131 24.7009 23.6187 24.1664C23.2325 26.2914 23.0345 28.4585 23.0345 30.6333C23.0345 32.8075 23.2325 34.9752 23.6187 37.1002C22.1131 36.565 20.6487 35.9076 19.2462 35.1267L17.5274 34.1706C17.3015 33.0283 17.1822 31.8454 17.1822 30.6333ZM41.9726 34.8432C41.2654 34.7122 40.5933 35.2182 40.4705 35.972C40.3629 36.6349 40.2345 37.2923 40.0878 37.9438C37.8593 38.4877 35.5679 38.7707 33.2669 38.7707C30.9675 38.7707 28.6782 38.4882 26.4512 37.9449C25.9127 35.5585 25.6335 33.1013 25.6335 30.6328C25.6335 28.1647 25.9122 25.7075 26.4512 23.3211C28.6782 22.7779 30.9675 22.4955 33.2669 22.4955C35.5685 22.4955 37.8599 22.7779 40.0878 23.3222C40.2345 23.9727 40.3629 24.6296 40.4705 25.2919C40.5797 25.9661 41.1289 26.4412 41.7492 26.4412C41.8228 26.4412 41.8975 26.4347 41.9726 26.4206C42.6797 26.2902 43.1537 25.5732 43.0314 24.8195C42.996 24.6015 42.9584 24.3844 42.9193 24.1675C44.4233 24.702 45.8863 25.3595 47.2883 26.1393L49.007 27.0959C49.2325 28.2378 49.3518 29.4207 49.3518 30.6333C49.3518 31.8454 49.2325 33.0283 49.007 34.1706L47.2883 35.1267C45.8868 35.907 44.4238 36.5639 42.9193 37.0985C42.9588 36.881 42.9965 36.663 43.032 36.4444C43.1542 35.6905 42.6802 34.9737 41.9726 34.8432ZM33.2669 10.7157C22.9644 10.7157 14.5832 19.6507 14.5832 30.6328C14.5832 41.6153 22.9644 50.5503 33.2669 50.5503C43.5696 50.5503 51.9508 41.6153 51.9508 30.6333C51.9508 19.6507 43.5696 10.7157 33.2669 10.7157Z"/>
<path fill-rule="evenodd" clip-rule="evenodd" d="M58.4776 2.9009C60.1046 2.9009 61.4289 4.31221 61.4289 6.04698C61.4289 7.78175 60.1046 9.19306 58.4776 9.19306C56.8503 9.19306 55.5258 7.78175 55.5258 6.04698C55.5258 4.31221 56.8503 2.9009 58.4776 2.9009ZM43.571 11.5171C43.8019 11.6962 44.0695 11.7828 44.3345 11.7828C44.736 11.7828 45.132 11.5849 45.3863 11.2125L47.5055 8.10867C47.7944 7.68492 48.2604 7.43225 48.7517 7.43225H53.0821C53.669 10.0285 55.8645 11.9636 58.4776 11.9636C61.5381 11.9636 64.0279 9.30942 64.0279 6.04698C64.0279 2.78454 61.5381 0.130371 58.4776 0.130371C55.8645 0.130371 53.669 2.06545 53.0821 4.66172H48.7517C47.4319 4.66172 46.1801 5.34077 45.4041 6.47822L43.2848 9.58204C42.8629 10.2006 42.9908 11.0669 43.571 11.5171Z"/>
<path fill-rule="evenodd" clip-rule="evenodd" d="M9.80101 57.1709C8.17366 57.1709 6.84974 55.7596 6.84974 54.0248C6.84974 52.29 8.17366 50.8787 9.80101 50.8787C11.4284 50.8787 12.7523 52.29 12.7523 54.0248C12.7523 55.7596 11.4284 57.1709 9.80101 57.1709ZM24.6259 49.5378C24.0299 49.1108 23.2228 49.2797 22.8223 49.915L21.5625 51.9128C21.2757 52.3679 20.7969 52.6395 20.2832 52.6395H15.196C14.6097 50.0433 12.4136 48.1082 9.80101 48.1082C6.74058 48.1082 4.25075 50.7624 4.25075 54.0248C4.25075 57.2872 6.74058 59.9414 9.80101 59.9414C12.4136 59.9414 14.6097 58.0063 15.196 55.4101H20.2832C21.6645 55.4101 22.9487 54.6806 23.7192 53.4588L24.9797 51.4604C25.3797 50.8257 25.2218 49.9647 24.6259 49.5378Z"/>
<path fill-rule="evenodd" clip-rule="evenodd" d="M2.59898 12.8121C2.59898 11.0773 3.9229 9.66598 5.55026 9.66598C7.17761 9.66598 8.50153 11.0773 8.50153 12.8121C8.50153 14.5468 7.17761 15.9581 5.55026 15.9581C3.9229 15.9581 2.59898 14.5468 2.59898 12.8121ZM10.9452 14.1973H13.4345C14.0782 14.1973 14.6594 14.6302 14.8813 15.2737L15.6634 17.5409C15.8568 18.101 16.3538 18.4484 16.8833 18.4484C17.0319 18.4484 17.1837 18.4207 17.3314 18.3623C18.0051 18.0988 18.3508 17.3023 18.1031 16.5841L17.3208 14.3169C16.7243 12.5886 15.1625 11.4268 13.4345 11.4268H10.9452C10.3589 8.83052 8.16289 6.89544 5.55026 6.89544C2.48983 6.89544 0 9.54961 0 12.8121C0 16.0745 2.48983 18.7287 5.55026 18.7287C8.16289 18.7287 10.3589 16.7936 10.9452 14.1973Z"/>
<path fill-rule="evenodd" clip-rule="evenodd" d="M60.9837 45.4459C59.3564 45.4459 58.0324 44.0346 58.0324 42.2998C58.0324 40.565 59.3564 39.1537 60.9837 39.1537C62.6111 39.1537 63.935 40.565 63.935 42.2998C63.935 44.0346 62.6111 45.4459 60.9837 45.4459ZM60.9837 36.3832C58.3711 36.3832 56.1751 38.3183 55.5882 40.9145H52.2162C51.4985 40.9145 50.9167 41.5347 50.9167 42.2998C50.9167 43.065 51.4985 43.6851 52.2162 43.6851H55.5882C56.1751 46.2808 58.3706 48.2164 60.9837 48.2164C64.0442 48.2164 66.534 45.5623 66.534 42.2998C66.534 39.0374 64.0442 36.3832 60.9837 36.3832Z"/>
<path fill-rule="evenodd" clip-rule="evenodd" d="M43.4939 30.7805C43.4939 30.0154 42.9107 29.3952 42.1928 29.3952C41.4751 29.3952 40.8933 30.0154 40.8933 30.7805C40.8933 31.5455 41.4751 32.1657 42.1928 32.1657H42.1959C42.9137 32.1657 43.4939 31.5455 43.4939 30.7805Z"/>
<path d="M72.9519 50.716L73.4335 46.8991C75.8205 48.1045 78.1727 48.7071 80.4899 48.7071C85.1384 48.7071 87.4626 46.0807 87.4626 40.8278V37.0108C85.9411 40.4037 83.4423 42.1001 79.9664 42.1001C77.2444 42.1001 75.0807 41.0435 73.4753 38.9305C71.87 36.8174 71.0673 33.9677 71.0673 30.3814C71.0673 26.691 71.9817 23.6851 73.8104 21.3637C75.639 19.0423 78.0051 17.8816 80.9087 17.8816C83.4493 17.8816 85.6339 18.9828 87.4626 21.1851V18.4173H91.6086V36.051C91.6086 39.8456 91.4201 42.6507 91.0432 44.4661C90.6803 46.2965 89.9893 47.792 88.9702 48.9527C87.1695 50.9913 84.3706 52.0107 80.5737 52.0107C77.9214 52.0107 75.3808 51.5791 72.9519 50.716ZM87.4626 34.2653V24.1985C85.6479 22.1896 83.6727 21.1851 81.5369 21.1851C79.6384 21.1851 78.1517 21.9961 77.0769 23.6181C76.002 25.2401 75.4645 27.4648 75.4645 30.2922C75.4645 35.6046 77.2164 38.2608 80.7203 38.2608C83.1073 38.2608 85.3548 36.929 87.4626 34.2653Z"/>
<path d="M99.6282 42.6581V7.41295H103.753V42.6581H99.6282Z"/>
<path d="M120.923 43.2161C117.671 43.2161 115.074 42.0703 113.134 39.7787C111.194 37.4721 110.223 34.3918 110.223 30.5377C110.223 26.6389 111.194 23.5586 113.134 21.2967C115.088 19.02 117.734 17.8816 121.07 17.8816C124.406 17.8816 127.044 19.02 128.985 21.2967C130.939 23.5586 131.916 26.624 131.916 30.4931C131.916 34.4513 130.939 37.5614 128.985 39.8233C127.031 42.0852 124.343 43.2161 120.923 43.2161ZM120.986 39.9126C125.355 39.9126 127.54 36.7727 127.54 30.4931C127.54 24.2878 125.383 21.1851 121.07 21.1851C116.77 21.1851 114.621 24.3026 114.621 30.5377C114.621 36.7876 116.742 39.9126 120.986 39.9126Z"/>
<path d="M138.366 42.926V7.41295H142.491V22.9708C144.18 19.578 146.713 17.8816 150.091 17.8816C152.827 17.8816 154.977 18.9456 156.541 21.0735C158.118 23.2015 158.907 26.1107 158.907 29.8011C158.907 33.8189 158.013 37.0629 156.227 39.5331C154.454 41.9885 152.116 43.2161 149.212 43.2161C146.518 43.2161 144.277 42.115 142.491 39.9126L141.988 42.926H138.366ZM142.491 36.8769C144.612 38.9007 146.636 39.9126 148.563 39.9126C152.527 39.9126 154.51 36.6909 154.51 30.2475C154.51 24.5631 152.751 21.7208 149.233 21.7208C146.93 21.7208 144.682 23.0527 142.491 25.7163V36.8769Z"/>
<path d="M165.377 42.6581V18.4173H169.502V42.6581H165.377ZM165.377 14.02V9.62275H169.502V14.02H165.377Z"/>
<path d="M175.49 42.6581L184.138 30.1359L175.742 18.4173H180.642L187.279 27.7475L193.289 18.4173H197.309L189.436 30.7163L198 42.6581H193.1L186.253 33.06L179.636 42.6581H175.49Z"/>
<path d="M27.9977 39.7682L28.2721 37.5938C29.632 38.2804 30.972 38.6238 32.2921 38.6238C34.9403 38.6238 36.2644 37.1275 36.2644 34.1349V31.9604C35.3976 33.8933 33.9741 34.8598 31.9939 34.8598C30.4431 34.8598 29.2105 34.2578 28.2959 33.054C27.3814 31.8502 26.9241 30.2268 26.9241 28.1837C26.9241 26.0813 27.445 24.3688 28.4868 23.0463C29.5286 21.7238 30.8765 21.0626 32.5307 21.0626C33.9781 21.0626 35.2226 21.6899 36.2644 22.9446V21.3677H38.6264V31.4136C38.6264 33.5754 38.519 35.1734 38.3043 36.2077C38.0975 37.2504 37.7039 38.1024 37.1233 38.7637C36.0974 39.9251 34.5029 40.5058 32.3398 40.5058C30.8288 40.5058 29.3815 40.2599 27.9977 39.7682ZM36.2644 30.3963V24.6613C35.2306 23.5168 34.1053 22.9446 32.8886 22.9446C31.807 22.9446 30.96 23.4066 30.3477 24.3306C29.7353 25.2547 29.4292 26.5221 29.4292 28.1328C29.4292 31.1593 30.4272 32.6725 32.4233 32.6725C33.7832 32.6725 35.0636 31.9138 36.2644 30.3963Z"/>
</mask>
<path fill-rule="evenodd" clip-rule="evenodd" d="M39.9401 46.2327C40.8756 44.3112 41.6324 42.3037 42.2046 40.2306C44.1376 39.6538 46.0173 38.8902 47.8121 37.9487C46.1893 41.6012 43.3909 44.5487 39.9401 46.2327ZM30.1305 47.4513C30.1111 47.3966 30.0893 47.342 30.0624 47.2889L29.0462 45.2559C28.3558 43.8745 27.767 42.4362 27.2817 40.9584C29.2502 41.3437 31.2553 41.5412 33.2669 41.5412C35.2792 41.5412 37.2857 41.3437 39.2549 40.9584C38.769 42.4346 38.1797 43.8707 37.4878 45.2559L36.4716 47.2889C36.4447 47.342 36.4229 47.3966 36.4035 47.4513C35.3889 47.6662 34.34 47.7797 33.2669 47.7797C32.1939 47.7797 31.1451 47.6662 30.1305 47.4513ZM18.7219 37.9487C20.5177 38.8908 22.3985 39.6549 24.3329 40.2317C24.9046 42.3042 25.6604 44.316 26.5929 46.2321C23.1426 44.5482 20.3447 41.6006 18.7219 37.9487ZM26.5929 15.0339C25.6604 16.95 24.9046 18.9619 24.3329 21.0344C22.3985 21.6118 20.5177 22.3752 18.7213 23.3179C20.3447 19.6654 23.1426 16.7179 26.5929 15.0339ZM36.4035 13.8147C36.4229 13.8694 36.4447 13.9241 36.4716 13.977L37.4878 16.0106C38.1802 17.3959 38.769 18.8314 39.2549 20.3081C37.2857 19.9223 35.2792 19.7249 33.2669 19.7249C31.2553 19.7249 29.2502 19.9223 27.2817 20.3077C27.767 18.8299 28.3558 17.3921 29.0462 16.0106L30.0624 13.9776C30.0893 13.9241 30.1111 13.87 30.1305 13.8147C31.1451 13.6 32.1939 13.4862 33.2669 13.4862C34.34 13.4862 35.3889 13.6 36.4035 13.8147ZM47.8121 23.3179C46.0173 22.3763 44.1376 21.6123 42.2046 21.0354C41.6324 18.9625 40.8756 16.9548 39.9401 15.0333C43.3909 16.7174 46.1893 19.6654 47.8121 23.3179ZM17.1822 30.6333C17.1822 29.4207 17.3015 28.2378 17.5274 27.0959L19.2462 26.1393C20.6487 25.3585 22.1131 24.7009 23.6187 24.1664C23.2325 26.2914 23.0345 28.4585 23.0345 30.6333C23.0345 32.8075 23.2325 34.9752 23.6187 37.1002C22.1131 36.565 20.6487 35.9076 19.2462 35.1267L17.5274 34.1706C17.3015 33.0283 17.1822 31.8454 17.1822 30.6333ZM41.9726 34.8432C41.2654 34.7122 40.5933 35.2182 40.4705 35.972C40.3629 36.6349 40.2345 37.2923 40.0878 37.9438C37.8593 38.4877 35.5679 38.7707 33.2669 38.7707C30.9675 38.7707 28.6782 38.4882 26.4512 37.9449C25.9127 35.5585 25.6335 33.1013 25.6335 30.6328C25.6335 28.1647 25.9122 25.7075 26.4512 23.3211C28.6782 22.7779 30.9675 22.4955 33.2669 22.4955C35.5685 22.4955 37.8599 22.7779 40.0878 23.3222C40.2345 23.9727 40.3629 24.6296 40.4705 25.2919C40.5797 25.9661 41.1289 26.4412 41.7492 26.4412C41.8228 26.4412 41.8975 26.4347 41.9726 26.4206C42.6797 26.2902 43.1537 25.5732 43.0314 24.8195C42.996 24.6015 42.9584 24.3844 42.9193 24.1675C44.4233 24.702 45.8863 25.3595 47.2883 26.1393L49.007 27.0959C49.2325 28.2378 49.3518 29.4207 49.3518 30.6333C49.3518 31.8454 49.2325 33.0283 49.007 34.1706L47.2883 35.1267C45.8868 35.907 44.4238 36.5639 42.9193 37.0985C42.9588 36.881 42.9965 36.663 43.032 36.4444C43.1542 35.6905 42.6802 34.9737 41.9726 34.8432ZM33.2669 10.7157C22.9644 10.7157 14.5832 19.6507 14.5832 30.6328C14.5832 41.6153 22.9644 50.5503 33.2669 50.5503C43.5696 50.5503 51.9508 41.6153 51.9508 30.6333C51.9508 19.6507 43.5696 10.7157 33.2669 10.7157Z" fill="#126BDC"/>
<path fill-rule="evenodd" clip-rule="evenodd" d="M58.4776 2.9009C60.1046 2.9009 61.4289 4.31221 61.4289 6.04698C61.4289 7.78175 60.1046 9.19306 58.4776 9.19306C56.8503 9.19306 55.5258 7.78175 55.5258 6.04698C55.5258 4.31221 56.8503 2.9009 58.4776 2.9009ZM43.571 11.5171C43.8019 11.6962 44.0695 11.7828 44.3345 11.7828C44.736 11.7828 45.132 11.5849 45.3863 11.2125L47.5055 8.10867C47.7944 7.68492 48.2604 7.43225 48.7517 7.43225H53.0821C53.669 10.0285 55.8645 11.9636 58.4776 11.9636C61.5381 11.9636 64.0279 9.30942 64.0279 6.04698C64.0279 2.78454 61.5381 0.130371 58.4776 0.130371C55.8645 0.130371 53.669 2.06545 53.0821 4.66172H48.7517C47.4319 4.66172 46.1801 5.34077 45.4041 6.47822L43.2848 9.58204C42.8629 10.2006 42.9908 11.0669 43.571 11.5171Z" fill="#126BDC"/>
<path fill-rule="evenodd" clip-rule="evenodd" d="M9.80101 57.1709C8.17366 57.1709 6.84974 55.7596 6.84974 54.0248C6.84974 52.29 8.17366 50.8787 9.80101 50.8787C11.4284 50.8787 12.7523 52.29 12.7523 54.0248C12.7523 55.7596 11.4284 57.1709 9.80101 57.1709ZM24.6259 49.5378C24.0299 49.1108 23.2228 49.2797 22.8223 49.915L21.5625 51.9128C21.2757 52.3679 20.7969 52.6395 20.2832 52.6395H15.196C14.6097 50.0433 12.4136 48.1082 9.80101 48.1082C6.74058 48.1082 4.25075 50.7624 4.25075 54.0248C4.25075 57.2872 6.74058 59.9414 9.80101 59.9414C12.4136 59.9414 14.6097 58.0063 15.196 55.4101H20.2832C21.6645 55.4101 22.9487 54.6806 23.7192 53.4588L24.9797 51.4604C25.3797 50.8257 25.2218 49.9647 24.6259 49.5378Z" fill="#126BDC"/>
<path fill-rule="evenodd" clip-rule="evenodd" d="M2.59898 12.8121C2.59898 11.0773 3.9229 9.66598 5.55026 9.66598C7.17761 9.66598 8.50153 11.0773 8.50153 12.8121C8.50153 14.5468 7.17761 15.9581 5.55026 15.9581C3.9229 15.9581 2.59898 14.5468 2.59898 12.8121ZM10.9452 14.1973H13.4345C14.0782 14.1973 14.6594 14.6302 14.8813 15.2737L15.6634 17.5409C15.8568 18.101 16.3538 18.4484 16.8833 18.4484C17.0319 18.4484 17.1837 18.4207 17.3314 18.3623C18.0051 18.0988 18.3508 17.3023 18.1031 16.5841L17.3208 14.3169C16.7243 12.5886 15.1625 11.4268 13.4345 11.4268H10.9452C10.3589 8.83052 8.16289 6.89544 5.55026 6.89544C2.48983 6.89544 0 9.54961 0 12.8121C0 16.0745 2.48983 18.7287 5.55026 18.7287C8.16289 18.7287 10.3589 16.7936 10.9452 14.1973Z" fill="#126BDC"/>
<path fill-rule="evenodd" clip-rule="evenodd" d="M60.9837 45.4459C59.3564 45.4459 58.0324 44.0346 58.0324 42.2998C58.0324 40.565 59.3564 39.1537 60.9837 39.1537C62.6111 39.1537 63.935 40.565 63.935 42.2998C63.935 44.0346 62.6111 45.4459 60.9837 45.4459ZM60.9837 36.3832C58.3711 36.3832 56.1751 38.3183 55.5882 40.9145H52.2162C51.4985 40.9145 50.9167 41.5347 50.9167 42.2998C50.9167 43.065 51.4985 43.6851 52.2162 43.6851H55.5882C56.1751 46.2808 58.3706 48.2164 60.9837 48.2164C64.0442 48.2164 66.534 45.5623 66.534 42.2998C66.534 39.0374 64.0442 36.3832 60.9837 36.3832Z" fill="#126BDC"/>
<path fill-rule="evenodd" clip-rule="evenodd" d="M43.4939 30.7805C43.4939 30.0154 42.9107 29.3952 42.1928 29.3952C41.4751 29.3952 40.8933 30.0154 40.8933 30.7805C40.8933 31.5455 41.4751 32.1657 42.1928 32.1657H42.1959C42.9137 32.1657 43.4939 31.5455 43.4939 30.7805Z" fill="#126BDC"/>
<path d="M72.9519 50.716L73.4335 46.8991C75.8205 48.1045 78.1727 48.7071 80.4899 48.7071C85.1384 48.7071 87.4626 46.0807 87.4626 40.8278V37.0108C85.9411 40.4037 83.4423 42.1001 79.9664 42.1001C77.2444 42.1001 75.0807 41.0435 73.4753 38.9305C71.87 36.8174 71.0673 33.9677 71.0673 30.3814C71.0673 26.691 71.9817 23.6851 73.8104 21.3637C75.639 19.0423 78.0051 17.8816 80.9087 17.8816C83.4493 17.8816 85.6339 18.9828 87.4626 21.1851V18.4173H91.6086V36.051C91.6086 39.8456 91.4201 42.6507 91.0432 44.4661C90.6803 46.2965 89.9893 47.792 88.9702 48.9527C87.1695 50.9913 84.3706 52.0107 80.5737 52.0107C77.9214 52.0107 75.3808 51.5791 72.9519 50.716ZM87.4626 34.2653V24.1985C85.6479 22.1896 83.6727 21.1851 81.5369 21.1851C79.6384 21.1851 78.1517 21.9961 77.0769 23.6181C76.002 25.2401 75.4645 27.4648 75.4645 30.2922C75.4645 35.6046 77.2164 38.2608 80.7203 38.2608C83.1073 38.2608 85.3548 36.929 87.4626 34.2653Z" fill="#126BDC"/>
<path d="M99.6282 42.6581V7.41295H103.753V42.6581H99.6282Z" fill="#126BDC"/>
<path d="M120.923 43.2161C117.671 43.2161 115.074 42.0703 113.134 39.7787C111.194 37.4721 110.223 34.3918 110.223 30.5377C110.223 26.6389 111.194 23.5586 113.134 21.2967C115.088 19.02 117.734 17.8816 121.07 17.8816C124.406 17.8816 127.044 19.02 128.985 21.2967C130.939 23.5586 131.916 26.624 131.916 30.4931C131.916 34.4513 130.939 37.5614 128.985 39.8233C127.031 42.0852 124.343 43.2161 120.923 43.2161ZM120.986 39.9126C125.355 39.9126 127.54 36.7727 127.54 30.4931C127.54 24.2878 125.383 21.1851 121.07 21.1851C116.77 21.1851 114.621 24.3026 114.621 30.5377C114.621 36.7876 116.742 39.9126 120.986 39.9126Z" fill="#126BDC"/>
<path d="M138.366 42.926V7.41295H142.491V22.9708C144.18 19.578 146.713 17.8816 150.091 17.8816C152.827 17.8816 154.977 18.9456 156.541 21.0735C158.118 23.2015 158.907 26.1107 158.907 29.8011C158.907 33.8189 158.013 37.0629 156.227 39.5331C154.454 41.9885 152.116 43.2161 149.212 43.2161C146.518 43.2161 144.277 42.115 142.491 39.9126L141.988 42.926H138.366ZM142.491 36.8769C144.612 38.9007 146.636 39.9126 148.563 39.9126C152.527 39.9126 154.51 36.6909 154.51 30.2475C154.51 24.5631 152.751 21.7208 149.233 21.7208C146.93 21.7208 144.682 23.0527 142.491 25.7163V36.8769Z" fill="#126BDC"/>
<path d="M165.377 42.6581V18.4173H169.502V42.6581H165.377ZM165.377 14.02V9.62275H169.502V14.02H165.377Z" fill="#126BDC"/>
<path d="M175.49 42.6581L184.138 30.1359L175.742 18.4173H180.642L187.279 27.7475L193.289 18.4173H197.309L189.436 30.7163L198 42.6581H193.1L186.253 33.06L179.636 42.6581H175.49Z" fill="#126BDC"/>
<path d="M27.9977 39.7682L28.2721 37.5938C29.632 38.2804 30.972 38.6238 32.2921 38.6238C34.9403 38.6238 36.2644 37.1275 36.2644 34.1349V31.9604C35.3976 33.8933 33.9741 34.8598 31.9939 34.8598C30.4431 34.8598 29.2105 34.2578 28.2959 33.054C27.3814 31.8502 26.9241 30.2268 26.9241 28.1837C26.9241 26.0813 27.445 24.3688 28.4868 23.0463C29.5286 21.7238 30.8765 21.0626 32.5307 21.0626C33.9781 21.0626 35.2226 21.6899 36.2644 22.9446V21.3677H38.6264V31.4136C38.6264 33.5754 38.519 35.1734 38.3043 36.2077C38.0975 37.2504 37.7039 38.1024 37.1233 38.7637C36.0974 39.9251 34.5029 40.5058 32.3398 40.5058C30.8288 40.5058 29.3815 40.2599 27.9977 39.7682ZM36.2644 30.3963V24.6613C35.2306 23.5168 34.1053 22.9446 32.8886 22.9446C31.807 22.9446 30.96 23.4066 30.3477 24.3306C29.7353 25.2547 29.4292 26.5221 29.4292 28.1328C29.4292 31.1593 30.4272 32.6725 32.4233 32.6725C33.7832 32.6725 35.0636 31.9138 36.2644 30.3963Z" fill="#126BDC"/>
<path fill-rule="evenodd" clip-rule="evenodd" d="M39.9401 46.2327C40.8756 44.3112 41.6324 42.3037 42.2046 40.2306C44.1376 39.6538 46.0173 38.8902 47.8121 37.9487C46.1893 41.6012 43.3909 44.5487 39.9401 46.2327ZM30.1305 47.4513C30.1111 47.3966 30.0893 47.342 30.0624 47.2889L29.0462 45.2559C28.3558 43.8745 27.767 42.4362 27.2817 40.9584C29.2502 41.3437 31.2553 41.5412 33.2669 41.5412C35.2792 41.5412 37.2857 41.3437 39.2549 40.9584C38.769 42.4346 38.1797 43.8707 37.4878 45.2559L36.4716 47.2889C36.4447 47.342 36.4229 47.3966 36.4035 47.4513C35.3889 47.6662 34.34 47.7797 33.2669 47.7797C32.1939 47.7797 31.1451 47.6662 30.1305 47.4513ZM18.7219 37.9487C20.5177 38.8908 22.3985 39.6549 24.3329 40.2317C24.9046 42.3042 25.6604 44.316 26.5929 46.2321C23.1426 44.5482 20.3447 41.6006 18.7219 37.9487ZM26.5929 15.0339C25.6604 16.95 24.9046 18.9619 24.3329 21.0344C22.3985 21.6118 20.5177 22.3752 18.7213 23.3179C20.3447 19.6654 23.1426 16.7179 26.5929 15.0339ZM36.4035 13.8147C36.4229 13.8694 36.4447 13.9241 36.4716 13.977L37.4878 16.0106C38.1802 17.3959 38.769 18.8314 39.2549 20.3081C37.2857 19.9223 35.2792 19.7249 33.2669 19.7249C31.2553 19.7249 29.2502 19.9223 27.2817 20.3077C27.767 18.8299 28.3558 17.3921 29.0462 16.0106L30.0624 13.9776C30.0893 13.9241 30.1111 13.87 30.1305 13.8147C31.1451 13.6 32.1939 13.4862 33.2669 13.4862C34.34 13.4862 35.3889 13.6 36.4035 13.8147ZM47.8121 23.3179C46.0173 22.3763 44.1376 21.6123 42.2046 21.0354C41.6324 18.9625 40.8756 16.9548 39.9401 15.0333C43.3909 16.7174 46.1893 19.6654 47.8121 23.3179ZM17.1822 30.6333C17.1822 29.4207 17.3015 28.2378 17.5274 27.0959L19.2462 26.1393C20.6487 25.3585 22.1131 24.7009 23.6187 24.1664C23.2325 26.2914 23.0345 28.4585 23.0345 30.6333C23.0345 32.8075 23.2325 34.9752 23.6187 37.1002C22.1131 36.565 20.6487 35.9076 19.2462 35.1267L17.5274 34.1706C17.3015 33.0283 17.1822 31.8454 17.1822 30.6333ZM41.9726 34.8432C41.2654 34.7122 40.5933 35.2182 40.4705 35.972C40.3629 36.6349 40.2345 37.2923 40.0878 37.9438C37.8593 38.4877 35.5679 38.7707 33.2669 38.7707C30.9675 38.7707 28.6782 38.4882 26.4512 37.9449C25.9127 35.5585 25.6335 33.1013 25.6335 30.6328C25.6335 28.1647 25.9122 25.7075 26.4512 23.3211C28.6782 22.7779 30.9675 22.4955 33.2669 22.4955C35.5685 22.4955 37.8599 22.7779 40.0878 23.3222C40.2345 23.9727 40.3629 24.6296 40.4705 25.2919C40.5797 25.9661 41.1289 26.4412 41.7492 26.4412C41.8228 26.4412 41.8975 26.4347 41.9726 26.4206C42.6797 26.2902 43.1537 25.5732 43.0314 24.8195C42.996 24.6015 42.9584 24.3844 42.9193 24.1675C44.4233 24.702 45.8863 25.3595 47.2883 26.1393L49.007 27.0959C49.2325 28.2378 49.3518 29.4207 49.3518 30.6333C49.3518 31.8454 49.2325 33.0283 49.007 34.1706L47.2883 35.1267C45.8868 35.907 44.4238 36.5639 42.9193 37.0985C42.9588 36.881 42.9965 36.663 43.032 36.4444C43.1542 35.6905 42.6802 34.9737 41.9726 34.8432ZM33.2669 10.7157C22.9644 10.7157 14.5832 19.6507 14.5832 30.6328C14.5832 41.6153 22.9644 50.5503 33.2669 50.5503C43.5696 50.5503 51.9508 41.6153 51.9508 30.6333C51.9508 19.6507 43.5696 10.7157 33.2669 10.7157Z" stroke="#126BDC" stroke-width="6" mask="url(#path-1-inside-1)"/>
<path fill-rule="evenodd" clip-rule="evenodd" d="M58.4776 2.9009C60.1046 2.9009 61.4289 4.31221 61.4289 6.04698C61.4289 7.78175 60.1046 9.19306 58.4776 9.19306C56.8503 9.19306 55.5258 7.78175 55.5258 6.04698C55.5258 4.31221 56.8503 2.9009 58.4776 2.9009ZM43.571 11.5171C43.8019 11.6962 44.0695 11.7828 44.3345 11.7828C44.736 11.7828 45.132 11.5849 45.3863 11.2125L47.5055 8.10867C47.7944 7.68492 48.2604 7.43225 48.7517 7.43225H53.0821C53.669 10.0285 55.8645 11.9636 58.4776 11.9636C61.5381 11.9636 64.0279 9.30942 64.0279 6.04698C64.0279 2.78454 61.5381 0.130371 58.4776 0.130371C55.8645 0.130371 53.669 2.06545 53.0821 4.66172H48.7517C47.4319 4.66172 46.1801 5.34077 45.4041 6.47822L43.2848 9.58204C42.8629 10.2006 42.9908 11.0669 43.571 11.5171Z" stroke="#126BDC" stroke-width="6" mask="url(#path-1-inside-1)"/>
<path fill-rule="evenodd" clip-rule="evenodd" d="M9.80101 57.1709C8.17366 57.1709 6.84974 55.7596 6.84974 54.0248C6.84974 52.29 8.17366 50.8787 9.80101 50.8787C11.4284 50.8787 12.7523 52.29 12.7523 54.0248C12.7523 55.7596 11.4284 57.1709 9.80101 57.1709ZM24.6259 49.5378C24.0299 49.1108 23.2228 49.2797 22.8223 49.915L21.5625 51.9128C21.2757 52.3679 20.7969 52.6395 20.2832 52.6395H15.196C14.6097 50.0433 12.4136 48.1082 9.80101 48.1082C6.74058 48.1082 4.25075 50.7624 4.25075 54.0248C4.25075 57.2872 6.74058 59.9414 9.80101 59.9414C12.4136 59.9414 14.6097 58.0063 15.196 55.4101H20.2832C21.6645 55.4101 22.9487 54.6806 23.7192 53.4588L24.9797 51.4604C25.3797 50.8257 25.2218 49.9647 24.6259 49.5378Z" stroke="#126BDC" stroke-width="6" mask="url(#path-1-inside-1)"/>
<path fill-rule="evenodd" clip-rule="evenodd" d="M2.59898 12.8121C2.59898 11.0773 3.9229 9.66598 5.55026 9.66598C7.17761 9.66598 8.50153 11.0773 8.50153 12.8121C8.50153 14.5468 7.17761 15.9581 5.55026 15.9581C3.9229 15.9581 2.59898 14.5468 2.59898 12.8121ZM10.9452 14.1973H13.4345C14.0782 14.1973 14.6594 14.6302 14.8813 15.2737L15.6634 17.5409C15.8568 18.101 16.3538 18.4484 16.8833 18.4484C17.0319 18.4484 17.1837 18.4207 17.3314 18.3623C18.0051 18.0988 18.3508 17.3023 18.1031 16.5841L17.3208 14.3169C16.7243 12.5886 15.1625 11.4268 13.4345 11.4268H10.9452C10.3589 8.83052 8.16289 6.89544 5.55026 6.89544C2.48983 6.89544 0 9.54961 0 12.8121C0 16.0745 2.48983 18.7287 5.55026 18.7287C8.16289 18.7287 10.3589 16.7936 10.9452 14.1973Z" stroke="#126BDC" stroke-width="6" mask="url(#path-1-inside-1)"/>
<path fill-rule="evenodd" clip-rule="evenodd" d="M60.9837 45.4459C59.3564 45.4459 58.0324 44.0346 58.0324 42.2998C58.0324 40.565 59.3564 39.1537 60.9837 39.1537C62.6111 39.1537 63.935 40.565 63.935 42.2998C63.935 44.0346 62.6111 45.4459 60.9837 45.4459ZM60.9837 36.3832C58.3711 36.3832 56.1751 38.3183 55.5882 40.9145H52.2162C51.4985 40.9145 50.9167 41.5347 50.9167 42.2998C50.9167 43.065 51.4985 43.6851 52.2162 43.6851H55.5882C56.1751 46.2808 58.3706 48.2164 60.9837 48.2164C64.0442 48.2164 66.534 45.5623 66.534 42.2998C66.534 39.0374 64.0442 36.3832 60.9837 36.3832Z" stroke="#126BDC" stroke-width="6" mask="url(#path-1-inside-1)"/>
<path fill-rule="evenodd" clip-rule="evenodd" d="M43.4939 30.7805C43.4939 30.0154 42.9107 29.3952 42.1928 29.3952C41.4751 29.3952 40.8933 30.0154 40.8933 30.7805C40.8933 31.5455 41.4751 32.1657 42.1928 32.1657H42.1959C42.9137 32.1657 43.4939 31.5455 43.4939 30.7805Z" stroke="#126BDC" stroke-width="6" mask="url(#path-1-inside-1)"/>
<path d="M72.9519 50.716L73.4335 46.8991C75.8205 48.1045 78.1727 48.7071 80.4899 48.7071C85.1384 48.7071 87.4626 46.0807 87.4626 40.8278V37.0108C85.9411 40.4037 83.4423 42.1001 79.9664 42.1001C77.2444 42.1001 75.0807 41.0435 73.4753 38.9305C71.87 36.8174 71.0673 33.9677 71.0673 30.3814C71.0673 26.691 71.9817 23.6851 73.8104 21.3637C75.639 19.0423 78.0051 17.8816 80.9087 17.8816C83.4493 17.8816 85.6339 18.9828 87.4626 21.1851V18.4173H91.6086V36.051C91.6086 39.8456 91.4201 42.6507 91.0432 44.4661C90.6803 46.2965 89.9893 47.792 88.9702 48.9527C87.1695 50.9913 84.3706 52.0107 80.5737 52.0107C77.9214 52.0107 75.3808 51.5791 72.9519 50.716ZM87.4626 34.2653V24.1985C85.6479 22.1896 83.6727 21.1851 81.5369 21.1851C79.6384 21.1851 78.1517 21.9961 77.0769 23.6181C76.002 25.2401 75.4645 27.4648 75.4645 30.2922C75.4645 35.6046 77.2164 38.2608 80.7203 38.2608C83.1073 38.2608 85.3548 36.929 87.4626 34.2653Z" stroke="#126BDC" stroke-width="6" mask="url(#path-1-inside-1)"/>
<path d="M99.6282 42.6581V7.41295H103.753V42.6581H99.6282Z" stroke="#126BDC" stroke-width="6" mask="url(#path-1-inside-1)"/>
<path d="M120.923 43.2161C117.671 43.2161 115.074 42.0703 113.134 39.7787C111.194 37.4721 110.223 34.3918 110.223 30.5377C110.223 26.6389 111.194 23.5586 113.134 21.2967C115.088 19.02 117.734 17.8816 121.07 17.8816C124.406 17.8816 127.044 19.02 128.985 21.2967C130.939 23.5586 131.916 26.624 131.916 30.4931C131.916 34.4513 130.939 37.5614 128.985 39.8233C127.031 42.0852 124.343 43.2161 120.923 43.2161ZM120.986 39.9126C125.355 39.9126 127.54 36.7727 127.54 30.4931C127.54 24.2878 125.383 21.1851 121.07 21.1851C116.77 21.1851 114.621 24.3026 114.621 30.5377C114.621 36.7876 116.742 39.9126 120.986 39.9126Z" stroke="#126BDC" stroke-width="6" mask="url(#path-1-inside-1)"/>
<path d="M138.366 42.926V7.41295H142.491V22.9708C144.18 19.578 146.713 17.8816 150.091 17.8816C152.827 17.8816 154.977 18.9456 156.541 21.0735C158.118 23.2015 158.907 26.1107 158.907 29.8011C158.907 33.8189 158.013 37.0629 156.227 39.5331C154.454 41.9885 152.116 43.2161 149.212 43.2161C146.518 43.2161 144.277 42.115 142.491 39.9126L141.988 42.926H138.366ZM142.491 36.8769C144.612 38.9007 146.636 39.9126 148.563 39.9126C152.527 39.9126 154.51 36.6909 154.51 30.2475C154.51 24.5631 152.751 21.7208 149.233 21.7208C146.93 21.7208 144.682 23.0527 142.491 25.7163V36.8769Z" stroke="#126BDC" stroke-width="6" mask="url(#path-1-inside-1)"/>
<path d="M165.377 42.6581V18.4173H169.502V42.6581H165.377ZM165.377 14.02V9.62275H169.502V14.02H165.377Z" stroke="#126BDC" stroke-width="6" mask="url(#path-1-inside-1)"/>
<path d="M175.49 42.6581L184.138 30.1359L175.742 18.4173H180.642L187.279 27.7475L193.289 18.4173H197.309L189.436 30.7163L198 42.6581H193.1L186.253 33.06L179.636 42.6581H175.49Z" stroke="#126BDC" stroke-width="6" mask="url(#path-1-inside-1)"/>
<path d="M27.9977 39.7682L28.2721 37.5938C29.632 38.2804 30.972 38.6238 32.2921 38.6238C34.9403 38.6238 36.2644 37.1275 36.2644 34.1349V31.9604C35.3976 33.8933 33.9741 34.8598 31.9939 34.8598C30.4431 34.8598 29.2105 34.2578 28.2959 33.054C27.3814 31.8502 26.9241 30.2268 26.9241 28.1837C26.9241 26.0813 27.445 24.3688 28.4868 23.0463C29.5286 21.7238 30.8765 21.0626 32.5307 21.0626C33.9781 21.0626 35.2226 21.6899 36.2644 22.9446V21.3677H38.6264V31.4136C38.6264 33.5754 38.519 35.1734 38.3043 36.2077C38.0975 37.2504 37.7039 38.1024 37.1233 38.7637C36.0974 39.9251 34.5029 40.5058 32.3398 40.5058C30.8288 40.5058 29.3815 40.2599 27.9977 39.7682ZM36.2644 30.3963V24.6613C35.2306 23.5168 34.1053 22.9446 32.8886 22.9446C31.807 22.9446 30.96 23.4066 30.3477 24.3306C29.7353 25.2547 29.4292 26.5221 29.4292 28.1328C29.4292 31.1593 30.4272 32.6725 32.4233 32.6725C33.7832 32.6725 35.0636 31.9138 36.2644 30.3963Z" stroke="#126BDC" stroke-width="6" mask="url(#path-1-inside-1)"/>
</svg>
