<svg width="31" height="31" viewBox="0 0 31 31" fill="none" xmlns="http://www.w3.org/2000/svg">
<path d="M25.9801 4.44058C23.1214 1.57838 19.3195 0.00151573 15.2689 0C6.92334 0 0.130353 6.79197 0.127321 15.1406C0.126311 17.8093 0.823545 20.4143 2.14829 22.7101L0 30.5566L8.02679 28.4512C10.2382 29.6577 12.7286 30.2933 15.2624 30.2943H15.2684C23.6135 30.2943 30.4065 23.5014 30.41 15.1532C30.4126 11.1067 28.8392 7.30277 25.9801 4.44058ZM15.2694 27.7368H15.2644C13.0059 27.7358 10.791 27.129 8.85892 25.9826L8.39915 25.7098L3.63572 26.9592L4.90691 22.315L4.60781 21.8386C3.34824 19.8348 2.68284 17.5193 2.68385 15.1411C2.68637 8.20211 8.33246 2.55703 15.274 2.55703C18.6354 2.55804 21.7951 3.86915 24.1713 6.24783C26.5475 8.62651 27.855 11.7883 27.854 15.1512C27.8515 22.0912 22.2059 27.7368 15.2694 27.7368Z" fill="black"/>
<path d="M22.1726 18.3109C21.7942 18.1214 19.9344 17.2064 19.5873 17.0801C19.2407 16.9538 18.9881 16.8906 18.7359 17.2696C18.4838 17.6485 17.7588 18.5003 17.538 18.753C17.3172 19.0056 17.0964 19.0369 16.7185 18.8475C16.3401 18.658 15.1209 18.2588 13.6759 16.9695C12.5513 15.9661 11.7919 14.7272 11.5711 14.3488C11.3503 13.9698 11.5473 13.7652 11.7368 13.5768C11.9071 13.407 12.1152 13.1347 12.3042 12.9139C12.4932 12.6931 12.5563 12.535 12.6826 12.2828C12.8089 12.0302 12.7458 11.8094 12.6513 11.62C12.5568 11.4305 11.8 9.56817 11.4847 8.81081C11.1775 8.07316 10.8658 8.17319 10.6334 8.16157C10.4131 8.15046 10.1605 8.14844 9.90834 8.14844C9.65623 8.14844 9.24648 8.24292 8.89937 8.62185C8.55278 9.00078 7.57513 9.91578 7.57513 11.7781C7.57513 13.6404 8.9307 15.4396 9.12017 15.6917C9.30913 15.9443 11.7878 19.7655 15.5832 21.4045C16.4861 21.7945 17.1904 22.0269 17.7401 22.2013C18.6465 22.4892 19.4711 22.4488 20.1233 22.3513C20.8504 22.2427 22.3616 21.4363 22.6768 20.5526C22.9921 19.669 22.9921 18.9111 22.8976 18.7535C22.8031 18.5953 22.551 18.5003 22.1726 18.3109Z" fill="black"/>
</svg>
