<svg width="259" height="31" viewBox="0 0 259 31" fill="none" xmlns="http://www.w3.org/2000/svg">
<path d="M223.707 0C213.916 0 208.798 6.58749 204.792 11.9082C200.675 17.2288 198.005 20.2692 192.553 20.2692C186.99 20.2692 184.431 17.2288 180.314 11.9082C176.197 6.58749 171.19 0 161.399 0C151.608 0 146.49 6.58749 142.484 11.9082C138.367 17.2288 135.697 20.2692 130.245 20.2692C124.793 20.2692 122.123 17.2288 118.006 11.9082C113.889 6.58749 108.882 0 99.091 0C89.2998 0 84.1816 6.58749 80.1761 11.9082C76.0593 17.2288 73.389 20.2692 67.937 20.2692C62.3738 20.2692 59.8147 17.2288 55.6979 11.9082C51.5812 6.58749 46.5743 0 36.783 0C26.9917 0 21.8736 6.58749 17.868 11.9082C13.3062 17.2288 10.7471 20.2692 5.18391 20.2692C2.7361 20.2692 0.733337 22.5495 0.733337 25.3365C0.733337 28.1235 2.7361 30.4038 5.18391 30.4038C14.9752 30.4038 20.0933 23.8163 24.0989 18.4957C28.2156 13.175 30.886 10.1346 36.3379 10.1346C41.9012 10.1346 44.4602 13.175 48.577 18.4957C52.6938 23.8163 57.7007 30.4038 67.492 30.4038C77.2832 30.4038 82.4014 23.8163 86.4069 18.4957C90.5237 13.175 93.194 10.1346 98.646 10.1346C104.098 10.1346 106.768 13.175 110.885 18.4957C115.002 23.8163 120.009 30.4038 129.8 30.4038C139.591 30.4038 144.709 23.8163 148.715 18.4957C152.832 13.175 155.502 10.1346 160.954 10.1346C166.517 10.1346 169.076 13.175 173.193 18.4957C177.31 23.8163 182.317 30.4038 192.108 30.4038C201.899 30.4038 207.017 23.8163 211.023 18.4957C215.14 13.175 217.81 10.1346 223.262 10.1346C228.825 10.1346 231.384 13.175 235.501 18.4957C239.618 23.8163 244.625 30.4038 254.416 30.4038C256.864 30.4038 258.867 28.1235 258.867 25.3365C258.867 22.5495 256.864 20.2692 254.416 20.2692C248.853 20.2692 246.294 17.2288 242.177 11.9082C238.617 6.58749 233.61 0 223.707 0Z" fill="white"/>
</svg>
